<?xml version="1.0" standalone="no"?>
<!DOCTYPE svg PUBLIC "-//W3C//DTD SVG 20010904//EN"
 "http://www.w3.org/TR/2001/REC-SVG-20010904/DTD/svg10.dtd">
<svg version="1.0" xmlns="http://www.w3.org/2000/svg"
 width="2000.000000pt" height="2000.000000pt" viewBox="0 0 2000.000000 2000.000000"
 preserveAspectRatio="xMidYMid meet">

<g transform="translate(0.000000,2000.000000) scale(0.100000,-0.100000)"
fill="#000000" stroke="none">
<path d="M11070 18379 c-79 -10 -217 -52 -285 -87 -175 -88 -328 -233 -522
-493 -72 -96 -145 -188 -163 -202 -65 -55 -106 -49 -275 38 -67 36 -163 78
-212 95 -100 33 -288 59 -305 42 -20 -20 3 -29 86 -36 128 -10 215 -39 396
-128 146 -73 171 -82 221 -83 86 0 118 27 270 232 149 201 287 348 395 423
354 245 789 224 1210 -58 243 -164 561 -488 646 -660 44 -89 110 -146 201
-174 66 -20 81 -20 241 -12 416 21 480 12 577 -85 146 -147 219 -463 190 -824
-7 -83 -14 -154 -17 -159 -3 -4 -169 -8 -370 -8 -343 0 -365 -1 -362 -17 3
-17 30 -18 374 -21 314 -2 373 0 383 12 36 43 46 449 17 621 -41 236 -135 413
-254 478 -109 59 -196 67 -466 42 -243 -22 -341 -2 -424 88 -23 26 -53 70 -67
99 -33 70 -172 237 -309 371 -400 394 -779 557 -1176 506z"/>
<path d="M8904 17647 c-134 -99 -227 -237 -310 -461 -18 -49 -39 -93 -46 -97
-20 -13 -36 -11 -145 20 -250 73 -405 60 -628 -50 -155 -76 -280 -205 -386
-398 -29 -53 -69 -112 -89 -131 -51 -50 -457 -245 -672 -323 -25 -9 -22 -36 5
-42 12 -3 1385 -4 3052 -3 2876 3 3030 4 3033 21 3 16 -144 17 -2989 17 -1646
0 -2989 4 -2983 8 5 5 65 32 134 62 193 82 418 198 453 234 18 18 54 73 81
122 123 224 257 354 444 430 173 70 319 77 502 24 149 -42 194 -44 225 -8 13
15 33 57 45 95 61 184 172 357 286 440 35 27 64 53 64 60 0 26 -21 21 -76 -20z"/>
<path d="M11432 17650 c-175 -37 -267 -147 -317 -380 -66 -305 -72 -323 -127
-385 -75 -86 -189 -102 -383 -55 -163 40 -378 32 -362 -13 2 -7 15 -11 28 -9
147 16 170 14 338 -19 156 -30 176 -32 236 -22 82 14 146 51 189 110 44 61 60
108 100 298 54 253 92 330 194 391 220 133 631 20 994 -272 81 -66 98 -75 98
-49 0 19 -61 75 -164 148 -233 168 -451 253 -671 262 -60 2 -129 0 -153 -5z"/>
<path d="M10045 16698 c-48 -57 -96 -156 -103 -214 -4 -40 -3 -46 13 -43 12 3
22 21 31 57 17 65 36 103 85 169 22 29 39 57 39 63 0 23 -30 8 -65 -32z"/>
<path d="M4185 16231 c-172 -50 -290 -148 -462 -381 -87 -117 -105 -134 -146
-133 -18 0 -77 24 -132 51 -113 57 -197 82 -279 82 -43 0 -56 -3 -56 -15 0
-10 10 -15 33 -15 71 -1 175 -32 282 -85 120 -60 174 -69 221 -38 14 9 70 76
124 148 202 271 361 369 595 369 261 -1 524 -160 784 -473 33 -41 61 -78 61
-83 0 -23 59 -92 99 -116 l46 -27 211 3 c246 3 270 -2 334 -75 46 -52 76 -127
96 -233 14 -79 18 -256 8 -334 l-7 -46 -237 0 c-195 0 -239 -3 -243 -14 -3 -8
-3 -17 0 -20 4 -3 118 -6 253 -6 203 0 250 3 260 14 7 9 14 70 17 163 11 301
-56 494 -197 566 l-55 29 -202 -7 c-187 -6 -205 -5 -246 13 -39 18 -97 75 -97
97 0 21 -118 160 -222 261 -167 163 -329 265 -486 305 -98 25 -271 25 -357 0z"/>
<path d="M2800 15722 c-68 -68 -116 -148 -156 -261 -10 -29 -24 -55 -30 -58
-6 -2 -55 8 -108 22 -156 40 -241 32 -384 -37 -108 -51 -189 -130 -255 -250
-27 -47 -56 -93 -65 -100 -35 -30 -123 -75 -282 -143 -101 -44 -165 -77 -165
-86 0 -12 287 -14 1998 -17 1900 -2 1998 -1 1995 15 -3 17 -104 18 -1935 23
l-1932 5 112 49 c62 26 142 66 179 87 62 36 70 46 119 132 89 155 198 246 348
291 77 23 151 20 269 -10 97 -25 104 -25 128 -9 14 9 28 24 31 33 52 153 121
265 194 320 52 39 63 62 28 62 -13 0 -48 -27 -89 -68z"/>
<path d="M4494 15771 c-52 -13 -113 -53 -138 -90 -37 -54 -52 -95 -76 -216
-48 -237 -101 -273 -330 -225 -141 29 -243 18 -226 -25 4 -11 12 -15 23 -11
44 17 105 16 197 -3 124 -26 186 -27 234 -2 77 39 104 89 138 249 37 176 64
226 139 265 142 72 412 -7 626 -185 68 -55 111 -49 52 7 -88 84 -249 177 -367
214 -75 23 -222 35 -272 22z"/>
<path d="M14715 15720 c-8 -13 5 -30 83 -111 l54 -57 -58 -22 c-71 -26 -257
-72 -299 -73 -19 0 -52 13 -89 37 -32 20 -64 35 -71 32 -15 -5 -25 -61 -25
-141 l0 -60 -107 0 c-95 0 -114 -3 -163 -26 -30 -14 -77 -47 -103 -74 -46 -46
-107 -137 -107 -162 0 -14 30 -20 148 -29 l92 -6 -114 -118 c-188 -196 -246
-281 -246 -363 0 -92 93 -312 249 -590 34 -60 61 -114 61 -122 0 -21 -177
-235 -605 -730 -243 -281 -556 -656 -673 -805 -2 -3 -43 -7 -90 -10 l-87 -5
-478 -1115 c-262 -613 -659 -1541 -882 -2061 l-405 -946 0 -510 0 -510 383 -6
c210 -4 664 -7 1009 -7 l628 0 2 -827 3 -828 809 -3 c641 -2 811 0 818 10 4 7
8 380 8 829 l0 816 128 6 c70 4 225 7 345 7 l217 0 -2 478 -3 477 -342 3 -343
2 0 1823 0 1823 303 97 c396 126 412 130 517 125 121 -6 149 -24 172 -107 20
-75 23 -79 48 -63 11 7 22 12 24 12 4 0 78 -89 339 -409 63 -78 68 -88 63
-120 -5 -32 -112 -813 -198 -1441 l-30 -226 66 -139 c36 -77 103 -219 149
-315 45 -96 89 -176 97 -178 10 -2 53 74 137 243 68 135 126 245 130 245 5 -1
21 -11 37 -24 l29 -24 -151 -463 c-405 -1246 -622 -1960 -677 -2234 -37 -187
-49 -370 -42 -693 8 -414 30 -568 252 -1797 122 -674 255 -1422 255 -1434 0
-6 -13 -11 -29 -11 -16 0 -39 -8 -52 -19 -27 -22 -29 -56 -16 -299 l9 -153
-64 -62 c-62 -61 -196 -167 -210 -167 -5 0 -8 500 -8 1110 0 1225 4 1149 -63
1218 -58 60 -80 62 -579 62 l-448 0 0 103 c0 87 -3 110 -22 147 -13 24 -36 53
-51 64 -28 20 -40 21 -475 21 l-447 0 -33 -23 c-52 -38 -63 -70 -65 -195 l-2
-112 -640 -5 c-699 -5 -677 -4 -737 -64 -62 -63 -58 21 -58 -1278 0 -1026 2
-1187 15 -1204 8 -10 15 -22 15 -26 0 -5 -925 -8 -2055 -8 -1130 0 -2055 2
-2055 4 0 3 5 17 10 31 10 27 12 27 74 20 123 -13 211 60 160 133 -27 40 -95
27 -160 -30 -36 -32 -37 -32 -30 -8 4 14 17 63 28 110 12 47 22 86 22 87 1 1
26 -5 56 -13 71 -19 126 -10 162 26 32 32 35 56 12 88 -31 44 -122 24 -193
-42 l-34 -31 6 50 c4 28 9 85 13 128 7 79 7 79 33 73 14 -4 55 -9 91 -13 61
-5 68 -4 98 22 28 23 33 33 30 64 -7 78 -104 77 -193 -1 -52 -46 -53 -45 -29
82 21 115 21 116 78 100 64 -18 140 -9 171 20 47 44 20 120 -42 120 -40 -1
-103 -32 -142 -71 -31 -32 -33 -32 -26 -9 11 35 73 157 83 164 5 3 36 -4 68
-15 101 -36 184 -5 184 68 0 65 -87 82 -169 32 -42 -25 -47 -20 -20 17 l21 29
-24 -26 c-12 -14 -28 -35 -35 -45 -10 -16 -11 -10 -6 31 6 59 -10 128 -38 156
-44 44 -114 9 -112 -56 1 -48 31 -94 85 -134 l46 -35 -25 -40 c-14 -22 -38
-67 -54 -100 l-28 -61 0 38 c-1 47 -43 131 -76 153 -31 21 -69 12 -91 -21 -35
-54 21 -138 114 -171 39 -14 51 -23 46 -34 -3 -8 -13 -52 -22 -97 -9 -46 -19
-83 -23 -83 -3 0 -9 13 -12 29 -4 16 -21 46 -38 66 -27 31 -37 36 -68 33 -43
-4 -68 -39 -57 -81 11 -44 64 -95 117 -114 34 -13 49 -23 49 -36 0 -48 -24
-207 -32 -207 -4 0 -8 11 -8 24 0 14 -15 44 -33 68 -27 35 -40 44 -69 46 -30
3 -40 -1 -54 -22 -36 -56 12 -134 108 -175 27 -11 48 -25 48 -31 0 -5 -14 -54
-32 -107 l-32 -98 -7 55 c-12 86 -40 153 -73 169 -25 12 -31 11 -55 -6 -35
-27 -60 -71 -70 -125 l-8 -43 -12 45 c-6 25 -21 70 -32 100 -11 30 -23 62 -26
71 -4 13 7 21 46 34 65 21 106 56 121 100 26 80 -55 129 -111 68 -44 -49 -52
-63 -64 -110 l-12 -46 -56 108 c-32 60 -57 112 -57 116 0 4 15 10 33 14 112
24 184 128 127 185 -52 52 -132 -10 -160 -122 -7 -26 -16 -46 -20 -43 -7 5
-72 151 -84 191 -5 18 1 23 49 38 67 21 110 56 125 101 27 80 -54 128 -115 68
-34 -34 -64 -97 -66 -138 -1 -28 -2 -27 -14 13 -8 23 -15 72 -17 109 l-3 66
57 13 c69 16 104 37 124 75 30 60 6 109 -54 109 -37 0 -87 -46 -113 -104 l-17
-39 -5 29 c-3 24 -4 22 -6 -11 l-1 -40 -19 40 c-25 56 -93 115 -131 115 -36 0
-70 -31 -70 -64 0 -29 33 -72 69 -90 15 -8 55 -18 88 -21 l61 -7 7 -72 c4 -39
11 -89 15 -111 l9 -39 -25 32 c-38 48 -105 84 -151 80 -74 -6 -85 -91 -17
-130 36 -21 75 -24 152 -13 40 5 52 4 52 -7 0 -7 15 -50 34 -94 l34 -82 -45
28 c-60 38 -98 46 -128 26 -54 -36 -39 -96 32 -128 43 -19 54 -20 113 -10 35
6 65 10 66 9 5 -6 94 -187 94 -192 0 -2 -21 9 -47 25 -53 34 -112 40 -138 14
-25 -25 -16 -83 17 -107 32 -24 110 -33 161 -19 37 10 38 10 52 -25 9 -20 24
-69 34 -108 l18 -72 -51 53 c-28 29 -63 56 -78 59 -70 18 -114 -30 -85 -91 21
-43 71 -64 150 -64 36 0 68 -3 71 -8 2 -4 7 -24 11 -45 l7 -37 -2331 0 c-1282
0 -2331 3 -2331 8 0 4 12 40 27 80 l28 74 35 -6 c19 -3 83 -9 141 -12 124 -8
185 6 260 60 96 70 107 189 23 255 -42 33 -125 29 -202 -10 -73 -36 -155 -108
-194 -168 -15 -25 -28 -42 -28 -38 0 5 16 52 35 107 33 97 87 304 100 387 4
24 10 43 13 43 4 0 43 -12 87 -27 149 -49 305 -33 383 40 72 67 70 183 -5 233
-39 26 -140 24 -212 -5 -80 -32 -159 -89 -200 -142 -39 -52 -57 -62 -47 -26 3
12 18 140 33 285 23 223 30 262 43 259 198 -59 202 -59 280 -55 147 9 240 79
240 181 0 91 -49 137 -144 137 -113 0 -257 -76 -337 -179 -33 -41 -45 -51 -47
-38 -6 30 36 297 65 412 22 85 32 109 43 106 8 -2 51 -15 95 -29 57 -18 104
-25 166 -26 80 -1 91 2 154 34 53 27 73 44 88 73 42 83 10 181 -69 207 -104
35 -300 -53 -396 -177 -22 -29 -42 -52 -45 -50 -11 11 100 263 166 375 l42 72
37 -16 c183 -80 260 -94 366 -64 68 19 131 81 141 137 8 51 -15 106 -57 136
-78 58 -287 11 -397 -88 -23 -21 -41 -35 -41 -31 0 9 63 97 153 212 l78 101
88 7 c127 10 194 28 255 69 125 83 159 200 82 281 -41 44 -91 54 -151 32 -110
-43 -208 -156 -252 -294 -25 -76 -39 -100 -115 -196 -49 -60 -107 -137 -130
-172 -24 -35 -46 -64 -49 -64 -4 0 2 30 13 68 35 122 6 301 -62 384 -69 83
-187 70 -236 -25 -36 -69 -7 -205 61 -284 19 -22 69 -67 112 -99 43 -32 82
-61 86 -65 5 -3 -23 -61 -61 -128 -68 -118 -142 -278 -142 -308 0 -8 -4 -12
-8 -9 -4 2 -9 35 -10 73 -5 128 -79 285 -163 340 -101 66 -219 1 -219 -122 0
-57 20 -106 66 -162 46 -56 89 -84 189 -123 44 -17 90 -35 102 -40 l21 -9 -28
-106 c-16 -58 -39 -165 -51 -236 l-23 -130 -13 53 c-30 119 -107 239 -174 274
-63 32 -152 6 -184 -55 -23 -46 -19 -123 9 -179 45 -88 136 -155 281 -207 28
-10 53 -21 57 -24 7 -6 -48 -481 -59 -511 -3 -8 -11 12 -18 46 -34 159 -145
294 -242 294 -69 0 -133 -73 -133 -150 1 -125 134 -255 317 -310 52 -16 52
-20 19 -146 -40 -146 -152 -446 -131 -350 15 71 6 165 -25 253 -16 48 -36 110
-44 136 -35 126 -162 154 -251 56 -63 -70 -114 -203 -116 -304 0 -48 -2 -45
-29 58 -36 133 -83 271 -121 355 l-28 63 25 9 c14 6 29 10 34 10 5 0 48 14 95
31 213 77 310 272 189 379 -28 24 -44 30 -80 30 -58 0 -91 -18 -146 -79 -64
-71 -109 -168 -121 -262 l-11 -79 -128 252 c-71 138 -130 256 -131 261 -1 4
36 20 82 33 122 36 183 68 235 124 57 60 76 103 76 167 0 86 -55 143 -138 143
-116 0 -245 -184 -259 -369 -6 -67 -7 -72 -21 -55 -22 30 -110 217 -157 339
-64 165 -65 149 7 169 117 32 196 67 242 108 122 106 138 248 37 315 -47 32
-96 30 -154 -7 -90 -57 -163 -190 -180 -327 -6 -46 -14 -79 -18 -71 -12 22
-48 216 -59 320 -15 144 -14 157 13 162 230 44 272 61 345 141 72 78 84 146
42 224 -16 32 -69 61 -109 61 -105 0 -241 -146 -290 -310 -8 -27 -10 5 -7 130
4 181 -8 122 -18 -89 -3 -64 -6 -118 -6 -121 -1 -3 -13 29 -28 70 -44 121
-128 222 -226 272 -108 55 -221 -7 -219 -121 2 -144 163 -240 404 -241 l67 0
7 -102 c8 -122 30 -294 46 -350 5 -22 9 -42 6 -44 -2 -2 -21 22 -43 54 -73
107 -219 193 -330 195 -126 3 -186 -135 -103 -236 69 -84 204 -115 360 -82
138 30 125 37 174 -100 23 -66 61 -162 84 -214 22 -52 41 -96 41 -99 0 -2 -23
17 -51 42 -28 25 -81 60 -117 78 -57 28 -77 33 -139 33 -68 0 -74 -2 -105 -32
-27 -27 -32 -41 -36 -90 -3 -52 -1 -62 26 -99 66 -91 209 -124 382 -89 46 9
90 19 97 22 9 4 47 -65 123 -221 61 -124 110 -229 110 -234 0 -5 -20 10 -45
33 -99 93 -262 148 -332 111 -52 -26 -73 -62 -73 -121 0 -91 69 -160 188 -191
69 -17 119 -14 234 13 38 8 74 13 81 10 24 -9 149 -426 147 -489 -1 -7 -16 17
-35 53 -22 42 -55 85 -95 122 -148 137 -285 150 -344 33 -41 -82 15 -186 132
-243 54 -27 64 -28 207 -29 l150 -1 17 -89 c9 -49 17 -97 17 -106 1 -17 -50
-18 -886 -20 -782 -3 -888 -5 -888 -18 0 -13 808 -16 7193 -20 l7193 -5 -46
-38 c-103 -87 -27 -140 238 -167 164 -17 333 -8 647 34 151 21 343 41 425 45
157 9 207 21 253 64 13 12 28 32 33 45 8 21 12 22 160 22 184 0 184 -2 -7 -96
-135 -65 -153 -81 -139 -124 19 -58 115 -70 545 -66 l345 4 395 82 c261 54
401 87 414 98 10 9 29 36 43 59 l25 43 386 2 c359 3 387 4 390 20 3 17 -20 18
-376 18 l-380 0 5 58 c4 47 -6 99 -57 307 l-63 250 2 275 c2 303 6 280 -70
375 -26 31 -65 89 -87 128 -45 78 -43 70 -67 427 -5 80 -32 441 -40 550 -12
157 -47 515 -61 620 -24 194 -43 279 -94 435 -64 195 -150 488 -150 510 0 9 8
29 19 43 35 51 43 97 35 190 -5 48 -8 94 -7 104 2 9 52 146 114 305 160 415
492 1284 631 1653 132 349 171 484 253 863 60 284 75 400 75 610 0 183 1 189
24 220 42 56 59 123 60 237 1 124 -2 136 -99 335 -57 116 -106 245 -214 565
-236 696 -341 997 -409 1175 -36 94 -102 278 -146 410 -45 132 -96 269 -112
305 -89 190 -218 329 -439 475 -357 237 -757 358 -1260 380 -129 6 -145 9
-203 37 -39 20 -85 33 -125 37 -35 3 -62 11 -62 17 0 6 20 28 44 48 59 49 73
69 122 166 52 104 77 217 63 286 -8 45 -5 61 43 205 70 208 89 317 74 426 -21
148 -77 273 -186 410 -107 136 -246 239 -394 293 -144 53 -220 61 -528 59
-269 -2 -342 3 -505 37 -14 3 -29 0 -33 -6z m-559 -720 l27 -11 -21 -22 c-23
-25 -156 -290 -196 -390 -15 -37 -24 -72 -21 -77 9 -14 35 -12 35 2 0 25 103
238 116 238 7 0 52 13 101 29 106 35 163 46 163 32 0 -6 -47 -74 -105 -151
-58 -78 -105 -148 -105 -157 0 -9 47 -106 104 -217 l104 -201 4 -225 5 -225
-49 -104 -49 -104 -72 6 c-107 9 -163 32 -224 93 -78 78 -78 85 11 195 42 52
79 103 82 114 3 14 -20 65 -72 155 -92 161 -186 358 -220 457 -40 118 -33 154
53 265 61 80 84 93 32 18 -31 -46 -79 -147 -79 -169 0 -14 6 -21 20 -21 13 0
20 7 20 19 0 25 49 115 131 242 38 58 69 110 69 114 0 11 91 105 101 105 4 0
20 -5 35 -10z m1329 -110 c66 -32 128 -67 139 -79 18 -20 18 -22 -28 -113 -68
-136 -66 -145 43 -249 48 -46 96 -90 105 -97 14 -11 16 -38 16 -200 0 -461
-68 -695 -228 -785 -74 -41 -136 -42 -186 -2 -134 106 -171 131 -259 174 -54
27 -92 51 -86 53 8 3 10 11 6 22 -6 15 -14 17 -39 12 -17 -3 -95 -9 -174 -13
-130 -5 -144 -5 -150 11 -9 22 25 161 82 336 48 151 48 116 -1 295 -10 35 -21
55 -30 55 -21 0 -19 -31 9 -129 23 -78 23 -86 10 -125 -26 -72 -93 -313 -104
-375 -13 -75 -4 -96 47 -108 l37 -9 -36 -22 c-20 -12 -66 -54 -103 -93 -36
-39 -68 -69 -69 -67 -2 1 -21 62 -41 133 l-39 130 -7 285 c-10 367 -11 717 -3
811 l7 74 174 43 c96 24 176 42 179 39 2 -2 11 -46 20 -97 8 -51 17 -96 19
-101 3 -4 65 22 138 59 72 37 167 80 209 95 42 15 101 46 130 67 36 28 59 38
73 34 11 -3 74 -32 140 -64z m-1133 -444 l-5 -258 -78 148 c-43 82 -77 154
-74 161 5 14 157 214 160 211 1 -2 0 -119 -3 -262z m1778 -58 c63 -32 83 -73
76 -159 -10 -137 -96 -301 -195 -372 -33 -23 -60 -49 -60 -57 0 -8 35 -41 78
-73 54 -39 81 -66 86 -85 3 -15 9 -117 12 -227 7 -281 -5 -370 -179 -1245
l-10 -54 -68 71 c-68 71 -221 257 -239 291 -7 14 2 35 45 97 30 43 54 84 54
91 0 13 -34 25 -253 85 l-119 33 44 35 c78 63 289 275 351 351 135 169 156
265 136 648 -14 266 -4 443 28 491 36 55 102 100 148 101 12 0 41 -10 65 -22z
m59 -686 c24 -15 52 -38 63 -52 30 -41 78 -263 169 -775 26 -148 31 -207 39
-460 5 -159 11 -343 14 -407 3 -65 2 -118 -2 -118 -4 0 -113 66 -242 146 -220
136 -235 147 -232 172 3 22 64 347 128 672 43 221 58 557 32 727 -9 66 -16 82
-42 107 l-31 29 30 -7 c17 -4 50 -19 74 -34z m317 -42 c405 -33 749 -134 1040
-307 195 -116 320 -220 414 -344 81 -108 128 -209 201 -434 34 -104 83 -244
109 -310 75 -188 173 -465 375 -1060 226 -665 240 -704 320 -866 79 -160 91
-214 77 -332 -23 -186 -97 -253 -439 -396 -142 -60 -383 -147 -368 -133 6 5
120 78 255 162 267 167 290 184 273 201 -14 14 6 26 -352 -201 -166 -104 -314
-196 -329 -204 -28 -15 -230 -61 -237 -54 -2 2 27 141 65 308 242 1076 275
1451 205 2285 -19 227 -21 241 -51 530 l-25 250 -66 100 c-134 203 -320 415
-364 415 -33 0 -21 -19 64 -103 87 -86 163 -182 265 -334 l61 -91 35 -354 c19
-194 38 -391 41 -438 4 -47 8 -98 10 -115 19 -151 25 -618 11 -820 -25 -365
-98 -761 -326 -1750 -61 -264 -125 -542 -142 -617 l-32 -138 -51 0 c-60 0
-458 20 -462 23 -4 4 -42 909 -59 1387 l-6 185 65 150 c35 83 143 328 240 545
176 398 255 596 352 880 64 187 66 195 41 195 -15 0 -31 -36 -86 -195 -112
-326 -165 -456 -375 -931 -112 -251 -209 -473 -216 -493 -16 -45 -29 -46 -29
-3 0 33 -17 449 -70 1753 -17 402 -30 769 -30 815 0 90 -8 116 -34 106 -14 -6
-16 -18 -11 -84 3 -43 12 -251 20 -463 8 -212 17 -441 20 -510 11 -257 66
-1641 83 -2063 9 -241 16 -440 15 -441 -4 -4 -203 15 -362 35 -184 23 -262 44
-314 83 l-35 27 29 65 30 65 -12 103 -11 102 35 81 c62 140 93 356 85 594 l-4
139 25 -23 c107 -97 156 -137 168 -137 33 0 2 41 -104 138 -62 56 -122 117
-134 135 -12 17 -65 89 -116 159 l-94 127 -25 205 -24 206 44 251 c25 138 47
253 49 256 3 2 63 -32 133 -76 101 -62 132 -78 141 -68 9 9 9 107 2 412 -10
385 -12 408 -45 615 -43 261 -128 690 -149 750 -8 23 -15 46 -15 51 0 12 48
11 206 -1z m-2597 -135 c59 -82 150 -130 272 -143 l66 -7 -97 -205 c-64 -134
-103 -206 -115 -208 -35 -7 -152 20 -212 49 -81 39 -143 108 -178 198 l-26 69
123 145 c68 80 126 146 129 146 3 1 20 -19 38 -44z m527 -131 c20 -82 56 -221
81 -309 24 -88 46 -169 49 -181 5 -19 -24 -33 -311 -158 -174 -76 -319 -136
-321 -133 -2 2 35 84 82 183 48 98 133 276 189 394 172 361 177 372 186 363 5
-5 25 -76 45 -159z m513 -56 c54 -26 204 -173 199 -195 -2 -9 -11 -21 -20 -27
-14 -8 -35 -2 -105 33 -49 24 -101 47 -117 52 -42 12 -94 -4 -149 -46 -51 -39
-67 -43 -67 -17 1 55 86 177 142 205 44 22 63 21 117 -5z m-1349 -125 c0 -30
64 -134 107 -174 58 -54 150 -95 245 -111 l77 -13 -75 -154 c-41 -85 -85 -185
-98 -221 -51 -140 -236 -729 -236 -750 0 -14 5 -20 16 -18 11 2 43 87 110 297
52 162 97 297 100 300 4 3 4 -21 0 -54 -16 -163 -18 -253 -6 -260 6 -4 16 -3
21 2 7 7 38 390 39 474 0 11 62 43 203 104 111 48 267 116 347 151 131 58 145
62 154 46 28 -50 115 -125 185 -160 72 -36 79 -37 180 -37 96 1 113 4 183 32
42 18 95 44 118 58 33 21 49 25 79 20 66 -11 64 -7 45 -161 -24 -193 -23 -362
4 -493 12 -58 20 -106 18 -109 -2 -2 -12 6 -22 17 -47 49 -352 211 -502 265
-87 31 -92 31 -92 7 0 -13 16 -24 63 -41 71 -25 259 -111 254 -116 -2 -2 -65
10 -141 28 -103 23 -140 28 -149 19 -20 -20 6 -31 159 -66 270 -61 304 -70
304 -77 0 -5 -25 -8 -56 -8 -76 0 -119 -12 -564 -155 -840 -270 -1121 -357
-1425 -440 -415 -113 -491 -120 -618 -52 -114 60 -167 157 -175 322 -4 98 -4
102 28 165 86 171 346 504 884 1132 121 141 223 255 228 252 4 -3 8 -12 8 -21z
m1904 -589 c53 -113 115 -209 215 -327 l82 -98 -25 -29 c-105 -125 -269 -310
-275 -310 -8 0 -38 117 -68 265 -20 102 -20 281 1 447 9 69 16 129 16 132 0
23 21 -7 54 -80z m389 -521 c56 -54 60 -56 73 -38 8 10 14 29 14 42 0 30 11
29 61 -4 36 -24 40 -30 35 -57 -3 -17 -8 -52 -12 -78 l-6 -48 -72 0 c-39 0
-76 4 -82 8 -9 6 -92 126 -117 168 -6 11 27 64 40 64 4 0 33 -26 66 -57z m-90
-113 c26 -39 47 -75 47 -80 0 -10 -39 -34 -45 -28 -16 18 -75 153 -71 164 10
25 22 15 69 -56z m21 -254 c127 -262 128 -265 120 -312 l-9 -48 -129 160 c-71
87 -158 193 -192 235 l-63 75 66 77 c37 42 69 77 73 77 4 0 64 -119 134 -264z
m-1404 -1841 l0 -1835 345 0 345 0 -2 -440 -3 -441 -325 0 c-179 0 -333 -3
-342 -5 -17 -5 -18 -53 -18 -835 l0 -829 -525 0 -525 0 0 824 c0 625 -3 827
-12 832 -6 4 -462 9 -1012 12 l-1001 4 -3 481 -2 481 205 481 c114 264 416
971 673 1570 l467 1090 76 -3 c107 -5 268 28 619 129 181 52 777 236 935 288
50 17 93 30 98 31 4 0 7 -826 7 -1835z m1710 1789 c0 -40 -35 -184 -45 -184
-7 0 -33 3 -57 6 -40 6 -48 11 -63 42 -9 20 -13 38 -8 39 4 2 42 26 83 53 73
48 90 56 90 44z m-70 -238 c0 -2 -16 -13 -35 -25 l-35 -20 0 24 c0 22 4 25 35
25 19 0 35 -2 35 -4z m87 -538 c-6 -3 -64 -40 -127 -81 -63 -41 -116 -73 -117
-72 -3 2 26 218 30 221 1 1 47 32 102 68 l100 65 12 -97 c10 -76 10 -98 0
-104z m157 -72 c90 -124 98 -148 104 -306 5 -144 -9 -331 -34 -440 -16 -73
-44 -150 -53 -150 -5 0 -79 629 -118 995 l-4 40 23 -29 c13 -16 49 -65 82
-110z m-100 -323 c3 -21 8 -63 12 -94 l6 -55 -102 -65 c-56 -35 -149 -95 -207
-132 l-105 -68 5 33 c3 18 11 70 18 116 l11 82 172 110 c94 60 174 109 178
110 3 0 9 -17 12 -37z m68 -629 l3 -77 -230 -148 c-126 -81 -234 -148 -240
-148 -5 0 -22 26 -37 59 -40 89 -34 101 100 185 62 39 174 109 249 158 158
100 150 102 155 -29z m2608 -426 c0 -194 -10 -336 -36 -508 -20 -138 -32 -180
-49 -180 -23 0 -25 14 -10 86 29 141 47 325 52 552 5 217 7 232 24 232 18 0
19 -11 19 -182z m-466 -30 c3 -13 7 -66 11 -118 9 -160 60 -358 117 -458 40
-69 90 -123 144 -153 56 -32 71 -59 31 -59 -32 0 -106 49 -149 99 -78 92 -142
252 -172 431 -19 121 -30 255 -22 269 12 19 35 12 40 -11z m-2333 -234 l-69
-139 -31 67 c-17 36 -32 71 -33 77 -3 11 193 144 200 137 2 -2 -28 -66 -67
-142z m815 -719 c123 -108 154 -141 154 -161 0 -14 -4 -24 -8 -22 -17 6 -320
273 -326 286 -7 16 1 32 16 32 5 0 79 -61 164 -135z m1790 72 c7 -18 -372
-811 -389 -815 -30 -6 -27 19 14 105 23 48 61 129 84 178 131 279 249 522 257
533 13 16 27 15 34 -1z m-1268 -73 c140 -6 162 -9 162 -23 -1 -9 -20 -95 -43
-191 l-43 -175 -54 0 c-77 1 -301 16 -322 21 -24 7 -26 21 -33 218 l-6 169 88
-7 c49 -3 161 -9 251 -12z m-364 -447 c-5 -67 -42 -244 -134 -642 -71 -302
-131 -567 -135 -587 -9 -50 -30 -77 -46 -61 -12 12 3 81 236 1077 36 153 65
287 65 298 0 10 4 16 10 13 6 -4 7 -42 4 -98z m438 4 c4 -3 24 -62 44 -131 52
-178 52 -247 -4 -440 -24 -80 -50 -172 -59 -206 l-17 -61 34 -46 c38 -53 41
-54 175 -34 l79 12 26 74 c16 46 37 83 54 97 42 37 50 31 43 -33 -13 -115 -20
-128 -114 -197 -88 -66 -116 -76 -206 -76 -53 0 -73 11 -164 87 -51 43 -83 55
-83 30 0 -14 102 -100 160 -136 33 -20 43 -21 205 -15 l170 7 42 38 c48 44 68
49 76 19 9 -36 -12 -85 -55 -128 -47 -45 -72 -52 -298 -86 -114 -17 -119 -15
-263 98 -52 42 -100 76 -106 76 -47 0 62 -106 193 -189 62 -39 94 -39 285 -5
79 14 146 23 149 20 3 -4 5 -20 5 -38 0 -26 -9 -40 -49 -75 -57 -51 -79 -58
-233 -73 -110 -12 -116 -11 -173 12 -46 18 -76 40 -135 101 -72 74 -103 93
-103 63 0 -18 130 -158 161 -173 122 -60 193 -83 259 -83 72 0 120 -12 120
-31 0 -6 -13 -24 -29 -40 -29 -28 -32 -29 -130 -29 l-100 0 -83 56 c-125 85
-259 194 -268 219 -14 38 -60 460 -61 558 0 81 47 756 55 782 4 11 385 -12
398 -24z m761 -395 c7 -19 -158 -370 -176 -374 -8 -2 -17 3 -19 10 -5 13 141
338 163 365 15 17 25 17 32 -1z m-1523 -1052 c0 -8 -7 -47 -16 -87 -17 -76
-36 -109 -54 -91 -7 7 -4 39 11 102 17 77 24 92 40 92 10 0 19 -7 19 -16z
m-59 -1024 c6 -36 25 -96 43 -135 68 -143 297 -881 661 -2130 64 -220 127
-436 140 -479 l24 -79 -35 -54 c-19 -29 -34 -59 -34 -66 0 -6 19 -66 42 -133
l42 -121 -30 -73 c-26 -65 -39 -82 -124 -160 -52 -49 -133 -120 -180 -159
l-85 -71 -175 0 -175 0 0 332 0 333 -32 100 c-42 132 -41 128 -48 440 -3 149
-8 340 -11 425 -47 1404 -60 2007 -45 2120 5 43 6 44 8 10 2 -19 8 -64 14
-100z m-2403 -914 c38 -21 62 -66 62 -118 l0 -48 -360 0 -360 0 0 41 c0 52 23
100 58 121 24 15 60 17 302 17 205 0 281 -3 298 -13z m1231 -245 c18 -13 42
-42 52 -65 18 -39 18 -89 16 -1159 l-2 -1119 -138 -79 -138 -79 -1385 0
c-1493 0 -1430 -2 -1468 51 -15 21 -16 127 -16 1184 0 1110 1 1162 19 1201 17
38 54 73 91 87 8 3 672 5 1475 4 l1460 -2 34 -24z m-12619 -2243 c30 -20 76
-47 102 -62 l46 -26 -36 -85 -37 -86 -139 3 -140 3 -23 110 c-12 61 -22 116
-23 123 0 7 35 29 78 50 73 35 78 37 97 21 11 -9 45 -32 75 -51z m4986 -170
c32 -19 32 -20 19 -51 -13 -31 -15 -32 -82 -35 l-69 -3 -10 51 -11 51 36 19
c33 17 38 17 60 3 13 -9 39 -24 57 -35z"/>
<path d="M14943 14519 c-16 -16 -16 -33 -3 -80 11 -41 21 -46 180 -101 162
-55 210 -56 210 -4 0 35 -34 59 -172 126 -133 65 -194 81 -215 59z"/>
<path d="M14594 14492 c-57 -42 -173 -168 -180 -196 -7 -31 1 -46 27 -46 31 0
258 119 270 142 13 25 3 87 -18 111 -23 25 -54 21 -99 -11z"/>
<path d="M15020 14125 c0 -8 19 -27 41 -42 54 -36 158 -44 210 -18 73 38 54
60 -27 33 -61 -21 -110 -14 -170 23 -38 23 -54 24 -54 4z"/>
<path d="M14648 14103 c-39 -26 -88 -33 -147 -18 -29 7 -33 6 -29 -11 7 -39
113 -52 173 -22 31 16 65 50 65 65 0 19 -20 15 -62 -14z"/>
<path d="M17805 12218 c-25 -67 -64 -212 -59 -219 16 -26 34 -1 62 89 40 126
41 135 19 140 -9 2 -19 -2 -22 -10z"/>
<path d="M17726 11662 c-2 -4 -21 -80 -41 -167 -20 -88 -59 -248 -87 -355 -63
-242 -66 -263 -43 -258 11 2 23 20 31 48 44 146 174 688 174 725 0 16 -25 21
-34 7z"/>
<path d="M18495 11338 c-13 -35 -33 -142 -29 -150 22 -35 53 28 57 115 2 39
-18 64 -28 35z"/>
<path d="M18436 11088 c-2 -7 -21 -78 -41 -158 -49 -189 -159 -525 -219 -666
-25 -61 -69 -150 -96 -198 -48 -83 -54 -106 -27 -106 41 0 188 327 291 645 52
162 136 476 130 486 -8 13 -34 11 -38 -3z"/>
<path d="M18497 10933 c-3 -4 -19 -66 -36 -138 -66 -271 -171 -592 -217 -663
-19 -29 -12 -54 12 -45 22 8 75 125 124 271 51 153 143 498 144 541 1 31 -16
53 -27 34z"/>
<path d="M17480 10744 c-21 -49 -20 -79 3 -72 16 6 49 75 45 96 -6 32 -27 22
-48 -24z"/>
<path d="M16680 10466 c0 -17 46 -56 65 -56 26 0 23 28 -5 49 -34 24 -60 27
-60 7z"/>
<path d="M14620 12186 c0 -20 7 -23 73 -31 54 -7 59 -6 55 11 -6 31 -128 50
-128 20z"/>
<path d="M13826 11992 c-7 -12 -10 -141 -3 -148 3 -4 13 -4 22 -1 21 9 22 157
1 157 -8 0 -17 -4 -20 -8z"/>
<path d="M13325 11023 c-6 -18 -331 -923 -570 -1593 -68 -190 -205 -572 -304
-850 -100 -277 -177 -508 -173 -512 5 -5 251 -7 548 -6 l539 3 0 1485 c0 1362
-1 1485 -16 1488 -9 2 -20 -5 -24 -15z m-508 -2920 c-2 -2 -114 -2 -249 -1
l-245 3 246 689 246 690 3 -689 c1 -378 1 -690 -1 -692z"/>
<path d="M3590 15142 c-34 -41 -74 -138 -66 -159 11 -27 32 -12 43 30 7 24 28
67 47 96 42 61 40 57 21 64 -9 4 -26 -8 -45 -31z"/>
<path d="M11875 14507 c-114 -38 -191 -97 -283 -217 -91 -118 -112 -140 -138
-140 -12 0 -60 18 -106 40 -78 37 -187 64 -215 53 -14 -5 -18 -33 -5 -33 51
-1 153 -29 218 -61 83 -40 121 -47 154 -29 11 6 47 47 81 93 115 152 177 207
284 246 119 45 272 23 402 -56 122 -74 277 -225 322 -311 22 -44 43 -64 89
-84 38 -17 58 -19 180 -13 124 6 140 5 172 -13 76 -42 130 -221 114 -382 l-7
-70 -166 -2 c-149 -3 -166 -5 -169 -20 -3 -17 10 -18 176 -18 132 0 182 3 189
13 16 19 23 156 13 243 -17 150 -69 245 -153 279 -35 14 -63 16 -177 10 -163
-7 -173 -3 -243 102 -54 81 -196 221 -281 277 -33 22 -91 53 -130 69 -61 26
-86 31 -176 34 -69 2 -119 -2 -145 -10z"/>
<path d="M10914 14158 c-41 -38 -124 -182 -124 -216 0 -16 -21 -15 -88 4 -80
24 -173 15 -255 -23 -86 -41 -133 -85 -187 -177 -50 -84 -64 -94 -255 -177
-100 -43 -121 -57 -107 -71 5 -5 636 -7 1403 -6 1231 3 1394 5 1394 18 0 13
-157 16 -1334 20 l-1334 5 77 34 c106 47 151 82 182 142 82 162 254 242 417
195 95 -28 109 -21 142 69 24 67 54 111 109 164 25 24 43 48 40 53 -11 17 -36
7 -80 -34z"/>
<path d="M12079 14180 c-75 -22 -115 -86 -145 -230 -14 -70 -23 -91 -50 -117
-37 -39 -59 -41 -176 -17 -90 18 -151 10 -156 -20 -4 -16 1 -17 45 -12 31 5
71 2 113 -8 85 -20 127 -20 170 2 50 25 75 69 94 169 32 159 72 203 184 203
37 0 88 -9 125 -21 66 -22 190 -94 221 -128 22 -24 56 -28 56 -7 0 20 -100 97
-175 134 -108 54 -231 75 -306 52z"/>
<path d="M4244 13961 c-113 -18 -192 -74 -235 -164 -45 -97 -51 -160 -47 -553
4 -347 5 -361 28 -423 31 -87 102 -160 185 -191 80 -30 233 -32 318 -5 67 21
147 87 177 144 44 87 51 144 57 438 6 312 -5 469 -39 560 -28 76 -96 144 -171
172 -65 24 -195 34 -273 22z m166 -186 c65 -33 65 -37 65 -485 0 -357 -2 -409
-16 -435 -26 -46 -51 -64 -100 -70 -56 -8 -106 17 -134 65 -19 34 -20 51 -20
435 0 372 1 403 19 438 10 21 30 44 45 52 34 19 105 19 141 0z"/>
<path d="M5160 13959 c-78 -14 -133 -43 -184 -100 -85 -95 -100 -197 -93 -636
3 -247 8 -320 21 -368 47 -169 160 -248 356 -248 200 -1 308 68 362 232 20 61
22 89 26 403 4 355 -2 434 -39 533 -27 72 -92 137 -163 164 -65 24 -207 34
-286 20z m195 -199 c14 -13 29 -40 35 -59 14 -50 13 -775 -1 -825 -21 -77 -92
-111 -174 -84 -32 10 -45 22 -62 58 -23 44 -23 49 -22 435 0 275 4 400 12 425
18 53 70 83 135 78 37 -3 59 -11 77 -28z"/>
<path d="M6900 13957 c-173 -41 -247 -147 -238 -346 7 -150 35 -195 242 -376
179 -156 216 -211 216 -312 0 -111 -81 -166 -167 -113 -42 25 -68 78 -81 164
-6 37 -13 70 -15 72 -2 2 -48 -5 -102 -16 -53 -11 -99 -20 -101 -20 -7 0 8
-94 23 -150 42 -154 121 -225 277 -250 129 -20 244 16 322 103 56 62 78 129
76 232 -1 148 -50 236 -211 383 -214 196 -237 222 -252 286 -11 51 -10 61 7
104 16 40 26 49 61 61 87 31 149 -27 160 -150 5 -55 8 -60 27 -55 12 2 58 10
104 17 95 14 94 13 66 129 -36 156 -128 235 -286 245 -42 3 -96 -1 -128 -8z"/>
<path d="M5830 13286 l0 -666 120 0 120 0 0 293 0 294 118 6 c151 7 219 31
282 96 65 67 85 129 85 266 -1 182 -45 280 -155 340 l-55 30 -257 3 -258 3 0
-665z m425 480 c58 -25 70 -55 70 -182 0 -98 -3 -116 -21 -141 -31 -41 -65
-54 -152 -56 l-77 -2 -3 198 -2 197 75 0 c43 0 90 -6 110 -14z"/>
<path d="M7470 13908 c0 -41 44 -726 54 -838 3 -30 5 -72 6 -92 0 -38 1 -38
40 -38 22 0 40 3 40 8 0 4 4 57 10 117 5 61 21 261 35 445 13 184 27 359 31
388 l5 52 -110 0 -111 0 0 -42z"/>
<path d="M11456 13740 c-32 -39 -54 -106 -39 -121 16 -16 29 -4 36 28 3 16 17
45 31 66 14 21 26 42 26 47 0 20 -29 9 -54 -20z"/>
<path d="M7462 12733 l3 -108 108 -3 107 -3 0 111 0 110 -110 0 -111 0 3 -107z"/>
<path d="M8060 12368 c-234 -20 -460 -83 -649 -179 -512 -262 -817 -799 -880
-1549 -6 -69 -9 -800 -8 -1840 l3 -1725 22 -140 c93 -583 321 -995 700 -1268
187 -134 399 -220 669 -269 109 -19 157 -21 603 -23 267 -2 519 1 560 6 421
51 721 188 980 449 63 63 141 152 173 197 169 239 296 583 344 933 17 127 18
246 18 1915 0 1939 2 1846 -55 2125 -171 824 -694 1303 -1495 1369 -141 12
-847 11 -985 -1z m1001 -38 c854 -87 1355 -619 1481 -1575 10 -79 13 -469 13
-1895 0 -2002 4 -1870 -70 -2165 -85 -340 -223 -602 -428 -812 -221 -228 -454
-357 -768 -427 -155 -34 -278 -46 -474 -46 -535 0 -917 140 -1226 450 -274
275 -439 650 -506 1150 -17 126 -18 252 -18 1855 0 1600 1 1730 18 1865 43
340 132 634 258 853 168 290 429 517 731 636 127 50 334 95 518 114 81 9 376
6 471 -3z"/>
<path d="M8646 11365 c-149 -38 -246 -124 -326 -290 -51 -105 -69 -172 -97
-345 -15 -95 -17 -268 -21 -1775 -3 -1704 -2 -1783 34 -1980 44 -236 151 -445
269 -523 87 -58 148 -75 280 -80 193 -7 296 27 400 133 113 114 183 286 222
550 17 112 18 237 18 1815 0 1600 -1 1703 -19 1835 -49 370 -167 569 -381 646
-79 28 -291 36 -379 14z m-24 -112 c101 -77 192 -256 223 -442 33 -196 35
-275 35 -1938 0 -1814 1 -1789 -55 -2009 -39 -153 -131 -312 -217 -374 -40
-29 -41 -29 -70 -12 -17 9 -48 37 -70 62 -95 107 -158 256 -200 475 l-23 120
0 1735 c0 1857 -1 1825 50 2026 29 114 93 242 153 307 45 48 97 87 116 87 5 0
31 -17 58 -37z"/>
<path d="M4126 12291 l-260 -6 -67 -155 c-37 -85 -361 -841 -719 -1680 -359
-839 -726 -1697 -816 -1906 l-164 -382 0 -509 0 -510 383 -6 c210 -4 664 -7
1009 -7 l628 0 2 -827 3 -828 815 0 815 0 3 826 2 826 128 6 c70 4 225 7 345
7 l217 0 -2 478 -3 477 -342 3 -343 2 0 2090 c0 1149 -4 2091 -9 2094 -13 8
-1333 14 -1625 7z m1592 -2133 l2 -2098 345 0 345 0 0 -442 0 -443 -332 1
c-183 1 -338 0 -345 -3 -10 -4 -13 -167 -13 -834 l0 -829 -525 0 -525 0 0 824
c0 626 -3 827 -12 832 -9 6 -1771 18 -1990 14 l-28 0 0 480 0 480 204 477
c112 263 459 1074 771 1803 312 729 617 1441 678 1583 l110 257 656 -2 656 -3
3 -2097z"/>
<path d="M4617 10998 c-8 -24 -135 -378 -282 -788 -147 -410 -311 -869 -365
-1020 -54 -151 -165 -462 -247 -690 -82 -228 -148 -421 -145 -428 3 -10 118
-12 546 -10 l541 3 0 1485 c0 1368 -1 1485 -16 1488 -12 2 -21 -10 -32 -40z
m-497 -2213 l0 -685 -250 0 -249 0 19 53 c11 28 81 223 155 432 243 679 318
885 322 885 1 0 3 -308 3 -685z"/>
<path d="M1955 5373 c-119 -30 -182 -261 -125 -458 11 -38 21 -83 21 -100 2
-29 2 -29 6 -3 3 19 29 46 93 98 97 77 117 101 155 182 47 100 28 220 -41 260
-34 19 -81 28 -109 21z"/>
<path d="M7375 3473 c-25 -25 -35 -59 -35 -121 0 -65 8 -102 22 -102 5 0 31
21 58 46 70 65 87 136 44 179 -20 20 -68 19 -89 -2z"/>
<path d="M8424 3361 c-38 -23 -77 -74 -93 -120 -6 -19 -11 -36 -11 -39 0 -3
30 -2 66 1 53 4 73 10 102 34 49 40 60 77 35 112 -25 33 -59 37 -99 12z"/>
</g>
</svg>
